<svg width="24" height="24" viewBox="0 0 24 24" fill="none" xmlns="http://www.w3.org/2000/svg">
<g id="Lang">
<rect width="24" height="24" rx="12" fill="#DA4167"/>
<path id="Vector-37" d="M4 7C3.72386 7 3.5 7.22386 3.5 7.5C3.5 7.77614 3.72386 8 4 8V7ZM12 8C12.2761 8 12.5 7.77614 12.5 7.5C12.5 7.22386 12.2761 7 12 7V8ZM11.5 7.5C11.5 7.77614 11.7239 8 12 8C12.2761 8 12.5 7.77614 12.5 7.5H11.5ZM12.5 4C12.5 3.72386 12.2761 3.5 12 3.5C11.7239 3.5 11.5 3.72386 11.5 4H12.5ZM12 7C11.7239 7 11.5 7.22386 11.5 7.5C11.5 7.77614 11.7239 8 12 8V7ZM19 8C19.2761 8 19.5 7.77614 19.5 7.5C19.5 7.22386 19.2761 7 19 7V8ZM19 7C18.7239 7 18.5 7.22386 18.5 7.5C18.5 7.77614 18.7239 8 19 8V7ZM20 8C20.2761 8 20.5 7.77614 20.5 7.5C20.5 7.22386 20.2761 7 20 7V8ZM19.4091 7.78743C19.5679 7.56148 19.5134 7.24962 19.2874 7.09088C19.0615 6.93213 18.7496 6.98661 18.5909 7.21257L19.4091 7.78743ZM11.1944 15.3189C10.9839 15.4976 10.9581 15.8131 11.1369 16.0236C11.3156 16.2341 11.6311 16.2599 11.8416 16.0811L11.1944 15.3189ZM7.19974 18.6002C6.97893 18.766 6.93437 19.0795 7.10019 19.3003C7.26602 19.5211 7.57945 19.5656 7.80026 19.3998L7.19974 18.6002ZM11.8498 16.066C12.0564 15.8828 12.0753 15.5667 11.892 15.3602C11.7088 15.1536 11.3927 15.1347 11.1862 15.318L11.8498 16.066ZM11.1247 16.0007C11.2952 16.2179 11.6095 16.2558 11.8267 16.0853C12.0439 15.9148 12.0818 15.6005 11.9113 15.3833L11.1247 16.0007ZM9.45728 11.2978C9.3456 11.0452 9.05033 10.931 8.79778 11.0427C8.54523 11.1544 8.43103 11.4497 8.54272 11.7022L9.45728 11.2978ZM11.9192 15.4016C11.7544 15.18 11.4412 15.134 11.2196 15.2988C10.998 15.4636 10.952 15.7768 11.1168 15.9984L11.9192 15.4016ZM16.2634 20.4405C16.5067 20.5712 16.8099 20.4798 16.9405 20.2366C17.0711 19.9933 16.9798 19.6902 16.7366 19.5595L16.2634 20.4405ZM4 8H12V7H4V8ZM12.5 7.5V4H11.5V7.5H12.5ZM12 8H19V7H12V8ZM19 8H20V7H19V8ZM18.5909 7.21257C16.4796 10.2178 13.9941 12.9418 11.1944 15.3189L11.8416 16.0811C14.706 13.6491 17.249 10.8621 19.4091 7.78743L18.5909 7.21257ZM7.80026 19.3998C8.79947 18.6494 10.262 17.4748 11.8498 16.066L11.1862 15.318C9.61801 16.7093 8.17653 17.8666 7.19974 18.6002L7.80026 19.3998ZM11.9113 15.3833C10.9267 14.1288 10.1023 12.7563 9.45728 11.2978L8.54272 11.7022C9.22136 13.2368 10.0887 14.6808 11.1247 16.0007L11.9113 15.3833ZM11.1168 15.9984C12.4856 17.8388 14.2428 19.3554 16.2634 20.4405L16.7366 19.5595C14.8451 18.5438 13.2005 17.1242 11.9192 15.4016L11.1168 15.9984Z" fill="white"/>
</g>
</svg>
