<svg width="104" height="34" viewBox="0 0 104 34" fill="none" xmlns="http://www.w3.org/2000/svg">
<g id="Lively Logo" clip-path="url(#clip0_2578_13915)">
<g id="Group 1436">
<g id="Group 1404">
<path id="Path 205" d="M50.8033 21.283C51.0197 21.2673 51.2361 21.3131 51.4286 21.4155C51.5587 21.4812 51.6701 21.58 51.7521 21.7025C51.8088 21.7911 51.8523 21.8878 51.8814 21.9895C51.8954 22.0398 51.9026 22.0918 51.903 22.1441V22.7843H46.2534V14.1077C46.2538 14.0554 46.261 14.0034 46.275 13.9531C46.2921 13.858 46.3288 13.7677 46.3828 13.6882C46.4415 13.581 46.5322 13.4959 46.6415 13.4454C46.7879 13.3677 46.9512 13.3297 47.116 13.335H47.8922V21.283H50.8033Z" fill="#606060"/>
<path id="Path 206" d="M57.639 13.7987C57.6972 13.6546 57.7959 13.5315 57.9226 13.445C58.0493 13.3585 58.1983 13.3126 58.3506 13.313H59.17V21.5701C59.1686 21.6369 59.1613 21.7034 59.1484 21.7688C59.1406 21.9147 59.1039 22.0574 59.0406 22.1883C58.98 22.3365 58.8922 22.4715 58.7818 22.5857C58.6438 22.7057 58.4669 22.7687 58.2859 22.7623H57.5312V14.3286C57.5289 14.2689 57.5362 14.2092 57.5527 14.152C57.5594 14.0914 57.5738 14.032 57.5959 13.9753C57.5743 13.9533 57.5958 13.8649 57.639 13.7987Z" fill="#606060"/>
<path id="Path 207" d="M64.4746 13.4235H65.4018L68.1404 20.8859L70.4476 14.5053C70.5132 14.2742 70.6315 14.0623 70.7927 13.8872C70.9114 13.7554 71.0496 13.6436 71.2024 13.556C71.3604 13.4658 71.539 13.4201 71.7199 13.4235H72.5609L69.1538 22.7846H67.1269L64.0649 14.3508C64.0207 14.2159 64.006 14.0727 64.0218 13.9313C64.0424 13.8266 64.0867 13.7283 64.1512 13.6443C64.2103 13.5794 64.2753 13.5202 64.3452 13.4677C64.3859 13.4463 64.4295 13.4314 64.4746 13.4235Z" fill="#606060"/>
<path id="Path 208" d="M77.6279 13.5999C77.7196 13.4828 77.85 13.4042 77.9945 13.3791C78.1239 13.357 78.1886 13.335 78.2101 13.335H82.911V14.0856C82.9211 14.2439 82.8752 14.4007 82.7816 14.5272C82.7096 14.6256 82.6126 14.7019 82.5013 14.7479C82.4137 14.7943 82.3188 14.8242 82.2209 14.8363C82.1768 14.8342 82.1327 14.8417 82.0915 14.8583H79.0296V17.4856H81.4662V18.1921C81.4714 18.3277 81.4494 18.463 81.4015 18.5895C81.3621 18.6824 81.3032 18.7653 81.229 18.8324C81.1629 18.8974 81.081 18.9431 80.9918 18.9648C80.9076 18.9902 80.8208 19.0051 80.7331 19.009H79.0296V21.283H82.0269C82.085 21.284 82.1428 21.2914 82.1994 21.3051C82.3276 21.3317 82.4476 21.3898 82.549 21.4744C82.6504 21.559 82.7302 21.6676 82.7816 21.7908C82.8788 21.9968 82.9233 22.2247 82.911 22.4531L82.9325 22.7622H77.4123V14.3285C77.381 14.1984 77.3844 14.0621 77.4224 13.9339C77.4603 13.8056 77.5313 13.6903 77.6279 13.5999Z" fill="#606060"/>
<path id="Path 209" d="M91.795 21.283C92.0114 21.2673 92.2278 21.3131 92.4203 21.4155C92.5504 21.4812 92.6618 21.58 92.7438 21.7025C92.8005 21.7911 92.844 21.8878 92.8731 21.9895C92.8871 22.0398 92.8943 22.0918 92.8947 22.1441V22.7843H87.2451V14.1077C87.2455 14.0554 87.2527 14.0034 87.2667 13.9531C87.2838 13.858 87.3205 13.7677 87.3745 13.6882C87.4332 13.581 87.5239 13.4959 87.6333 13.4454C87.7796 13.3677 87.9429 13.3297 88.1077 13.335H88.8839V21.283H91.795Z" fill="#606060"/>
<path id="Path 210" d="M102.965 13.4235H104L100.291 18.5677V21.6144C100.309 21.9104 100.216 22.2023 100.032 22.4313C99.9484 22.5169 99.8542 22.5911 99.7519 22.6521C99.6608 22.6948 99.5671 22.7317 99.4716 22.7625C99.366 22.791 99.2573 22.8058 99.1481 22.8066H98.6737V18.5677L94.9648 13.4235H95.9999C96.2332 13.4271 96.4624 13.4877 96.6683 13.6001C96.8715 13.7068 97.06 13.8404 97.229 13.9975C97.4243 14.1729 97.6046 14.3649 97.7681 14.5716L99.5363 17.0222L101.283 14.5495C101.432 14.3445 101.598 14.1525 101.779 13.9755C101.946 13.8328 102.127 13.7071 102.318 13.6001C102.51 13.4726 102.736 13.4108 102.965 13.4235Z" fill="#606060"/>
</g>
<g id="Group 1435">
<path id="Ellipse 65" d="M16.6038 34C25.7738 34 33.2076 26.3888 33.2076 17C33.2076 7.61116 25.7738 0 16.6038 0C7.43376 0 0 7.61116 0 17C0 26.3888 7.43376 34 16.6038 34Z" fill="url(#paint0_linear_2578_13915)"/>
<g id="Group 1405">
<path id="Path 211" d="M17.4233 13.8652L17.3802 13.8211C17.285 13.7196 17.1842 13.6237 17.0783 13.5341C16.9704 13.4458 16.8842 13.3575 16.7764 13.2691C16.7518 13.2419 16.7226 13.2194 16.6901 13.2029C13.4988 10.4652 10.5661 9.4055 8.32355 9.56004H8.30199C7.23418 9.60824 6.21458 10.0289 5.4125 10.7523C3.90306 12.1873 3.53648 14.7925 4.87341 17.9497C4.87341 17.9717 4.89496 17.9938 4.91653 18.0159C5.56343 19.5172 6.62004 21.151 8.10791 22.8289C8.83329 23.5868 9.61952 24.281 10.4583 24.9042C10.8249 25.1691 11.1915 25.4341 11.5796 25.6769C11.2865 25.0916 11.1036 24.4549 11.0405 23.8003C10.2646 23.2859 9.52922 22.7101 8.84107 22.0782C6.21034 19.5393 2.95428 14.7042 5.60657 11.1938C6.32019 10.5818 7.20167 10.2115 8.12947 10.1341C10.8896 9.86914 13.9084 12.0107 15.9138 13.9535C15.9354 13.9535 15.9354 13.9536 15.957 13.9756C16.0825 14.0821 16.198 14.2004 16.302 14.3289C16.4007 14.4267 16.4943 14.5299 16.5823 14.638C18.868 17.2432 21.3909 21.8354 19.1483 24.7938C18.5384 25.31 17.7983 25.6391 17.0136 25.7432C16.6707 25.7909 16.3241 25.8057 15.9785 25.7873C14.9445 25.6839 13.9368 25.3923 13.0028 24.9263C12.7656 24.8159 12.5284 24.7055 12.2912 24.573C12.3559 24.7497 12.4637 24.9263 12.55 25.1029C12.621 25.2451 12.7078 25.3785 12.8087 25.5003C13.0715 25.8759 13.4006 26.1979 13.7791 26.4497C14.5635 26.9616 15.4603 27.2652 16.3882 27.3328H16.4314C16.5607 27.3328 16.6901 27.3549 16.8195 27.3549C16.9705 27.3549 17.1214 27.3328 17.2939 27.3328C18.418 27.2126 19.4791 26.7425 20.3343 25.986C20.5619 25.7115 20.7641 25.4158 20.9381 25.1029C21.0329 24.9308 21.1193 24.754 21.1969 24.573C22.7494 20.8639 19.9893 16.4925 17.4233 13.8652Z" fill="white"/>
<path id="Path 212" d="M24.9273 9.53782C21.8221 9.51574 18.9758 11.1495 16.7116 13.2028C16.5822 13.3131 16.4529 13.4456 16.3019 13.5781L15.9569 13.9313C15.9785 13.9313 15.9785 13.9313 16 13.9534C16.1256 14.0599 16.2411 14.1781 16.345 14.3067C16.4438 14.4045 16.5374 14.5077 16.6254 14.6157C16.7548 14.4833 16.8626 14.3729 16.9704 14.2404C17.0998 14.108 17.2291 13.9534 17.3801 13.8209C18.5648 12.6106 19.916 11.5842 21.3909 10.7742C23.4825 9.67029 25.7898 9.29496 27.7305 10.8846C29.1968 12.4742 28.9165 14.9248 28.1833 16.8015L28.1186 16.9339C27.2716 18.8569 26.0626 20.5899 24.5607 22.0339C23.5766 23.0222 22.4491 23.8489 21.2184 24.4846C20.8734 24.6612 20.5283 24.8157 20.1833 24.9703C19.1846 25.3787 18.1296 25.6245 17.0566 25.6989C16.9488 25.6989 16.841 25.7209 16.7332 25.7209C16.6312 25.7187 16.5298 25.7038 16.4313 25.6768C11.407 24.9482 13.7574 18.3248 16.2372 15.1015C16.1078 14.9248 15.9569 14.7703 15.8275 14.6157C15.7544 14.522 15.6752 14.4335 15.5903 14.3508C13.1752 17.0443 10.8464 21.1287 12.3343 24.5287C12.3989 24.7054 12.5068 24.882 12.593 25.0586C12.6641 25.2008 12.7509 25.3342 12.8518 25.456C13.1146 25.8316 13.4437 26.1536 13.8221 26.4054C14.6066 26.9173 15.5034 27.2209 16.4313 27.2885H16.4744C16.6038 27.2885 16.7332 27.3105 16.8626 27.3105C17.0135 27.3105 17.1645 27.2885 17.337 27.2885C19.7952 27.1339 22.3396 25.6326 24.4313 23.6015C26.4798 21.5924 28.0971 19.0976 28.7008 17.0002C29.8437 13.6885 28.9596 9.60405 24.9273 9.53782Z" fill="white"/>
</g>
</g>
</g>
</g>
<defs>
<linearGradient id="paint0_linear_2578_13915" x1="2.02566" y1="8.84" x2="31.4943" y2="24.5749" gradientUnits="userSpaceOnUse">
<stop offset="0.017" stop-color="#00BA63"/>
<stop offset="1" stop-color="#008579"/>
</linearGradient>
<clipPath id="clip0_2578_13915">
<rect width="104" height="34" fill="white"/>
</clipPath>
</defs>
</svg>
