<svg width="24" height="24" viewBox="0 0 24 24" fill="none" xmlns="http://www.w3.org/2000/svg">
<g id="Feedback">
<rect width="24" height="24" rx="12" fill="#00BA63"/>
<g id="Group">
<path id="Vector" d="M12 18C15.3137 18 18 15.3137 18 12C18 8.68629 15.3137 6 12 6C8.68629 6 6 8.68629 6 12C6 15.3137 8.68629 18 12 18Z" stroke="white" stroke-linecap="round" stroke-linejoin="round"/>
<path id="Vector_2" d="M10.125 10.875C10.5392 10.875 10.875 10.5392 10.875 10.125C10.875 9.71079 10.5392 9.375 10.125 9.375C9.71079 9.375 9.375 9.71079 9.375 10.125C9.375 10.5392 9.71079 10.875 10.125 10.875Z" fill="white"/>
<path id="Vector_3" d="M13.874 10.875C14.2882 10.875 14.624 10.5392 14.624 10.125C14.624 9.71079 14.2882 9.375 13.874 9.375C13.4598 9.375 13.124 9.71079 13.124 10.125C13.124 10.5392 13.4598 10.875 13.874 10.875Z" fill="white"/>
<path id="Vector_4" d="M9.74902 12.75C10.2013 13.7497 10.9513 14.25 11.999 14.25C13.0468 14.25 13.7968 13.7497 14.249 12.75" stroke="white" stroke-linecap="round" stroke-linejoin="round"/>
</g>
</g>
</svg>
